# xmcd CD database file
#
# Track frame offsets:
#	150
#	17825
#	33855
#
# Disc length: 684 seconds
#
# Revision: 4
# Processed by: cddbd v1.5.1PL0 Copyright (c) Steve Scherf et al.
# Submitted via: CDex 1.50
#
DISCID=1802aa03
DTITLE=パラダイス山元と東京ラテンムードデラックス - ルリはシュガーイン
DYEAR=1900
DGENRE=歌謡曲
TTITLE0=ルリはシュガーイン
TTITLE1=科学マンボ隊ラテンジャー愛のテーマ
TTITLE2=ルリはシュガーイン（エキサイティングボイス入りカラオケ）
EXTD=
EXTT0=
EXTT1=
EXTT2=
PLAYORDER=
